<svg width="53" height="53" viewBox="0 0 53 53" fill="none" xmlns="http://www.w3.org/2000/svg">
<circle cx="26.5" cy="26.5" r="26" fill="#F5F5F5"/>
<path d="M30 30.5C31.6569 30.5 33 31.8431 33 33.5C33 35.1569 31.6569 36.5 30 36.5C28.3431 36.5 27 35.1569 27 33.5C27 31.8431 28.3431 30.5 30 30.5ZM20 26.5C22.2091 26.5 24 28.2909 24 30.5C24 32.7091 22.2091 34.5 20 34.5C17.7909 34.5 16 32.7091 16 30.5C16 28.2909 17.7909 26.5 20 26.5ZM28.5 16.5C31.5376 16.5 34 18.9624 34 22C34 25.0376 31.5376 27.5 28.5 27.5C25.4624 27.5 23 25.0376 23 22C23 18.9624 25.4624 16.5 28.5 16.5Z" fill="#0078FF"/>
</svg>
